<svg width="12" height="16" viewBox="0 0 12 16" fill="none" xmlns="http://www.w3.org/2000/svg">
<path d="M10.4 0.299927H1.6C1.30826 0.299927 1.02847 0.415819 0.822183 0.622109C0.615893 0.828399 0.5 1.10819 0.5 1.39993V15.2285C0.499972 15.3127 0.522476 15.3953 0.565177 15.4678C0.607878 15.5404 0.669218 15.6001 0.742826 15.6409C0.816434 15.6818 0.899627 15.7021 0.983764 15.6999C1.0679 15.6977 1.14991 15.673 1.22129 15.6284L5.99921 12.6427L10.7787 15.6284C10.8501 15.673 10.9321 15.6977 11.0162 15.6999C11.1004 15.7021 11.1836 15.6818 11.2572 15.6409C11.3308 15.6001 11.3921 15.5404 11.4348 15.4678C11.4775 15.3953 11.5 15.3127 11.5 15.2285V1.39993C11.5 1.10819 11.3841 0.828399 11.1778 0.622109C10.9715 0.415819 10.6917 0.299927 10.4 0.299927ZM10.5571 14.3776L6.24907 11.6857C6.17415 11.6389 6.08757 11.6141 5.99921 11.6141C5.91086 11.6141 5.82428 11.6389 5.74936 11.6857L1.44286 14.3776V1.39993C1.44286 1.35825 1.45941 1.31828 1.48888 1.28881C1.51835 1.25934 1.55832 1.24278 1.6 1.24278H10.4C10.4417 1.24278 10.4816 1.25934 10.5111 1.28881C10.5406 1.31828 10.5571 1.35825 10.5571 1.39993V14.3776Z" fill="white"/>
</svg>
