<svg width="24" height="18" viewBox="0 0 24 18" fill="none" xmlns="http://www.w3.org/2000/svg">
<path d="M22.4727 0.5H1.52727C1.12221 0.5 0.733747 0.660737 0.447328 0.94685C0.160909 1.23296 0 1.62102 0 2.02564V4.64103C0 5.04565 0.160909 5.4337 0.447328 5.71982C0.733747 6.00593 1.12221 6.16667 1.52727 6.16667H1.74545V15.9744C1.74545 16.379 1.90636 16.767 2.19278 17.0532C2.4792 17.3393 2.86767 17.5 3.27273 17.5H20.7273C21.1323 17.5 21.5208 17.3393 21.8072 17.0532C22.0936 16.767 22.2545 16.379 22.2545 15.9744V6.16667H22.4727C22.8778 6.16667 23.2663 6.00593 23.5527 5.71982C23.8391 5.4337 24 5.04565 24 4.64103V2.02564C24 1.62102 23.8391 1.23296 23.5527 0.94685C23.2663 0.660737 22.8778 0.5 22.4727 0.5ZM20.9455 15.9744C20.9455 16.0322 20.9225 16.0876 20.8815 16.1285C20.8406 16.1693 20.7851 16.1923 20.7273 16.1923H3.27273C3.21486 16.1923 3.15937 16.1693 3.11845 16.1285C3.07753 16.0876 3.05455 16.0322 3.05455 15.9744V6.16667H20.9455V15.9744ZM22.6909 4.64103C22.6909 4.69883 22.6679 4.75427 22.627 4.79514C22.5861 4.83601 22.5306 4.85897 22.4727 4.85897H1.52727C1.46941 4.85897 1.41391 4.83601 1.37299 4.79514C1.33208 4.75427 1.30909 4.69883 1.30909 4.64103V2.02564C1.30909 1.96784 1.33208 1.9124 1.37299 1.87153C1.41391 1.83065 1.46941 1.80769 1.52727 1.80769H22.4727C22.5306 1.80769 22.5861 1.83065 22.627 1.87153C22.6679 1.9124 22.6909 1.96784 22.6909 2.02564V4.64103ZM8.72727 9.87179C8.72727 9.69838 8.79623 9.53207 8.91899 9.40946C9.04174 9.28684 9.20822 9.21795 9.38182 9.21795H14.6182C14.7918 9.21795 14.9583 9.28684 15.081 9.40946C15.2038 9.53207 15.2727 9.69838 15.2727 9.87179C15.2727 10.0452 15.2038 10.2115 15.081 10.3341C14.9583 10.4568 14.7918 10.5256 14.6182 10.5256H9.38182C9.20822 10.5256 9.04174 10.4568 8.91899 10.3341C8.79623 10.2115 8.72727 10.0452 8.72727 9.87179Z" fill="#ABB7C2"/>
</svg>
