<svg width="22" height="17" viewBox="0 0 22 17" fill="none" xmlns="http://www.w3.org/2000/svg">
<path d="M21.3529 0H0.647059C0.475448 0 0.310866 0.0688871 0.189519 0.191507C0.068172 0.314127 0 0.480435 0 0.653846V15.4744C0 15.879 0.159068 16.267 0.442211 16.5532C0.725355 16.8393 1.10938 17 1.5098 17H20.4902C20.8906 17 21.2746 16.8393 21.5578 16.5532C21.8409 16.267 22 15.879 22 15.4744V0.653846C22 0.480435 21.9318 0.314127 21.8105 0.191507C21.6891 0.0688871 21.5246 0 21.3529 0ZM11 9.35654L2.31 1.30769H19.69L11 9.35654ZM8.16049 8.5L1.29412 14.8597V2.14026L8.16049 8.5ZM9.11814 9.38705L10.5686 10.7253C10.6879 10.8355 10.8437 10.8967 11.0054 10.8967C11.1671 10.8967 11.3229 10.8355 11.4422 10.7253L12.8873 9.38705L19.69 15.6923H2.31108L9.11814 9.38705ZM13.8395 8.5L20.7059 2.14026V14.8597L13.8395 8.5Z" fill="#181818"/>
</svg>
