<svg width="20" height="20" viewBox="0 0 20 20" fill="none" xmlns="http://www.w3.org/2000/svg">
<path d="M19.0856 8.58169L11.0005 0.418468C10.8691 0.285799 10.7132 0.180558 10.5415 0.108757C10.3698 0.0369559 10.1858 0 10 0C9.81418 0 9.63018 0.0369559 9.45851 0.108757C9.28684 0.180558 9.13086 0.285799 8.99947 0.418468L0.914366 8.58169C0.782624 8.71409 0.678175 8.87153 0.607054 9.04492C0.535932 9.21831 0.499548 9.40422 0.500004 9.59189V19.3878C0.500004 19.5501 0.563891 19.7059 0.67761 19.8207C0.791328 19.9355 0.945564 20 1.10639 20H7.57447C7.73529 20 7.88953 19.9355 8.00325 19.8207C8.11696 19.7059 8.18085 19.5501 8.18085 19.3878V13.4694H11.8191V19.3878C11.8191 19.5501 11.883 19.7059 11.9968 19.8207C12.1105 19.9355 12.2647 20 12.4255 20H18.8936C19.0544 20 19.2087 19.9355 19.3224 19.8207C19.4361 19.7059 19.5 19.5501 19.5 19.3878V9.59189C19.5005 9.40422 19.4641 9.21831 19.3929 9.04492C19.3218 8.87153 19.2174 8.71409 19.0856 8.58169ZM18.2872 18.7755H13.0319V12.8572C13.0319 12.6948 12.968 12.5391 12.8543 12.4243C12.7406 12.3094 12.5864 12.2449 12.4255 12.2449H7.57447C7.41365 12.2449 7.25941 12.3094 7.14569 12.4243C7.03197 12.5391 6.96809 12.6948 6.96809 12.8572V18.7755H1.71277V9.59189C1.71262 9.56503 1.71771 9.53841 1.72777 9.51354C1.73783 9.48868 1.75265 9.46606 1.77139 9.44699L9.85649 1.28377C9.87528 1.26464 9.89764 1.24946 9.92227 1.2391C9.9469 1.22874 9.97332 1.2234 10 1.2234C10.0267 1.2234 10.0531 1.22874 10.0777 1.2391C10.1024 1.24946 10.1247 1.26464 10.1435 1.28377L18.2286 9.44699C18.2473 9.46606 18.2622 9.48868 18.2722 9.51354C18.2823 9.53841 18.2874 9.56503 18.2872 9.59189V18.7755Z" fill="#ABB7C2"/>
</svg>
