<svg width="20" height="20" viewBox="0 0 20 20" fill="none" xmlns="http://www.w3.org/2000/svg">
<path d="M13.7255 8.42825C13.7255 8.58427 13.6635 8.73391 13.5532 8.84423C13.4429 8.95456 13.2933 9.01654 13.1373 9.01654H6.86275C6.70674 9.01654 6.55712 8.95456 6.4468 8.84423C6.33648 8.73391 6.27451 8.58427 6.27451 8.42825C6.27451 8.27223 6.33648 8.12259 6.4468 8.01227C6.55712 7.90194 6.70674 7.83996 6.86275 7.83996H13.1373C13.2933 7.83996 13.4429 7.90194 13.5532 8.01227C13.6635 8.12259 13.7255 8.27223 13.7255 8.42825ZM13.1373 10.9775H6.86275C6.70674 10.9775 6.55712 11.0395 6.4468 11.1498C6.33648 11.2601 6.27451 11.4098 6.27451 11.5658C6.27451 11.7218 6.33648 11.8714 6.4468 11.9818C6.55712 12.0921 6.70674 12.1541 6.86275 12.1541H13.1373C13.2933 12.1541 13.4429 12.0921 13.5532 11.9818C13.6635 11.8714 13.7255 11.7218 13.7255 11.5658C13.7255 11.4098 13.6635 11.2601 13.5532 11.1498C13.4429 11.0395 13.2933 10.9775 13.1373 10.9775ZM20 9.99702C20.0004 11.7307 19.5501 13.4347 18.6933 14.9419C17.8365 16.449 16.6027 17.7075 15.1129 18.594C13.6231 19.4804 11.9284 19.9643 10.1952 19.9981C8.46199 20.0319 6.74975 19.6146 5.22647 18.787L1.80784 19.9263C1.56601 20.007 1.30648 20.0187 1.05837 19.9601C0.810253 19.9016 0.583347 19.7751 0.403083 19.5948C0.222819 19.4145 0.0963217 19.1876 0.0377679 18.9394C-0.0207859 18.6913 -0.00908174 18.4318 0.0715687 18.1899L1.21078 14.771C0.48457 13.4326 0.073524 11.9461 0.00898785 10.4248C-0.0555483 8.90345 0.22813 7.38746 0.838392 5.99242C1.44865 4.59738 2.36939 3.36012 3.53038 2.37499C4.69137 1.38986 6.06197 0.682867 7.53766 0.307925C9.01335 -0.0670177 10.5552 -0.100009 12.0455 0.211465C13.5359 0.522939 14.9355 1.17065 16.1376 2.10522C17.3396 3.03979 18.3124 4.23653 18.9818 5.60419C19.6512 6.97185 19.9994 8.47431 20 9.99702ZM18.8235 9.99702C18.8232 8.64338 18.5115 7.30796 17.9125 6.09409C17.3136 4.88021 16.4434 3.82041 15.3693 2.9967C14.2952 2.17298 13.0461 1.60743 11.7185 1.34379C10.3909 1.08015 9.02045 1.1255 7.71318 1.47633C6.40591 1.82715 5.19687 2.47405 4.1796 3.36697C3.16233 4.25989 2.3641 5.37489 1.84667 6.62571C1.32924 7.87653 1.10648 9.22963 1.19563 10.5803C1.28478 11.931 1.68345 13.2431 2.36078 14.4151C2.40262 14.4872 2.42863 14.5675 2.43708 14.6505C2.44553 14.7335 2.43623 14.8173 2.4098 14.8965L1.18824 18.5615C1.17671 18.5961 1.17504 18.6331 1.18341 18.6686C1.19177 18.704 1.20984 18.7364 1.23559 18.7622C1.26135 18.788 1.29376 18.806 1.32921 18.8144C1.36465 18.8228 1.40173 18.8211 1.43627 18.8096L5.09804 17.5879C5.15817 17.5681 5.22102 17.5579 5.28431 17.5575C5.38757 17.5581 5.48891 17.5854 5.57843 17.6369C6.91987 18.4138 8.44227 18.8235 9.99238 18.8248C11.5425 18.8261 13.0656 18.4191 14.4084 17.6445C15.7511 16.87 16.8662 15.7554 17.6413 14.4128C18.4164 13.0703 18.8241 11.5473 18.8235 9.99702Z" fill="url(#paint0_linear_18020_5057)"/>
<defs>
<linearGradient id="paint0_linear_18020_5057" x1="10" y1="0" x2="10" y2="20" gradientUnits="userSpaceOnUse">
<stop stop-color="#FCE823"/>
<stop offset="0.65" stop-color="#F72A0C"/>
</linearGradient>
</defs>
</svg>
