<svg width="22" height="24" viewBox="0 0 22 24" fill="none" xmlns="http://www.w3.org/2000/svg">
<path d="M20.3617 8.15094H16.383V5.20755C16.383 3.82642 15.8158 2.50186 14.8063 1.52526C13.7968 0.548651 12.4277 0 11 0C9.57235 0 8.20316 0.548651 7.19366 1.52526C6.18416 2.50186 5.61702 3.82642 5.61702 5.20755V8.15094H1.6383C1.20379 8.15094 0.787087 8.31792 0.479846 8.61515C0.172606 8.91238 0 9.31551 0 9.73585V22.4151C0 22.8354 0.172606 23.2386 0.479846 23.5358C0.787087 23.833 1.20379 24 1.6383 24H20.3617C20.7962 24 21.2129 23.833 21.5202 23.5358C21.8274 23.2386 22 22.8354 22 22.4151V9.73585C22 9.31551 21.8274 8.91238 21.5202 8.61515C21.2129 8.31792 20.7962 8.15094 20.3617 8.15094ZM7.02128 5.20755C7.02128 4.18671 7.44046 3.20769 8.18662 2.48585C8.93277 1.76402 9.94478 1.35849 11 1.35849C12.0552 1.35849 13.0672 1.76402 13.8134 2.48585C14.5595 3.20769 14.9787 4.18671 14.9787 5.20755V8.15094H7.02128V5.20755ZM20.5957 22.4151C20.5957 22.4751 20.5711 22.5327 20.5272 22.5752C20.4833 22.6177 20.4238 22.6415 20.3617 22.6415H1.6383C1.57623 22.6415 1.5167 22.6177 1.4728 22.5752C1.42891 22.5327 1.40426 22.4751 1.40426 22.4151V9.73585C1.40426 9.6758 1.42891 9.61821 1.4728 9.57575C1.5167 9.53329 1.57623 9.50943 1.6383 9.50943H20.3617C20.4238 9.50943 20.4833 9.53329 20.5272 9.57575C20.5711 9.61821 20.5957 9.6758 20.5957 9.73585V22.4151ZM11 11.7736C10.255 11.7745 9.53621 12.0399 8.97996 12.5194C8.42371 12.9989 8.06865 13.6591 7.98209 14.375C7.89552 15.0908 8.08347 15.8126 8.51031 16.4033C8.93714 16.994 9.57319 17.4127 10.2979 17.58V19.6981C10.2979 19.8783 10.3718 20.051 10.5035 20.1784C10.6352 20.3058 10.8138 20.3774 11 20.3774C11.1862 20.3774 11.3648 20.3058 11.4965 20.1784C11.6282 20.051 11.7021 19.8783 11.7021 19.6981V17.58C12.4268 17.4127 13.0629 16.994 13.4897 16.4033C13.9165 15.8126 14.1045 15.0908 14.0179 14.375C13.9313 13.6591 13.5763 12.9989 13.02 12.5194C12.4638 12.0399 11.745 11.7745 11 11.7736ZM11 16.3019C10.676 16.3019 10.3592 16.2089 10.0898 16.0348C9.82039 15.8606 9.61041 15.6131 9.48641 15.3235C9.36241 15.0339 9.32997 14.7152 9.39318 14.4078C9.4564 14.1003 9.61243 13.8179 9.84155 13.5963C10.0707 13.3746 10.3626 13.2237 10.6804 13.1625C10.9982 13.1014 11.3276 13.1328 11.627 13.2527C11.9263 13.3727 12.1822 13.5758 12.3622 13.8365C12.5422 14.0971 12.6383 14.4035 12.6383 14.717C12.6383 15.1373 12.4657 15.5405 12.1585 15.8377C11.8512 16.1349 11.4345 16.3019 11 16.3019Z" fill="#181818"/>
</svg>
