<svg width="25" height="25" viewBox="0 0 25 25" fill="none" xmlns="http://www.w3.org/2000/svg">
<path d="M24.6217 23.6248L18.5815 17.5845C20.3039 15.6037 21.19 13.0314 21.0529 10.41C20.9158 7.78858 19.7663 5.32278 17.8466 3.53238C15.927 1.74198 13.3871 0.766861 10.7625 0.812573C8.13792 0.858284 5.63358 1.92126 3.77742 3.77742C1.92126 5.63358 0.858284 8.13792 0.812573 10.7625C0.766861 13.3871 1.74198 15.927 3.53238 17.8466C5.32278 19.7663 7.78858 20.9158 10.41 21.0529C13.0314 21.19 15.6037 20.3039 17.5845 18.5815L23.6248 24.6217C23.7585 24.7463 23.9354 24.8141 24.1181 24.8109C24.3009 24.8077 24.4752 24.7337 24.6044 24.6044C24.7337 24.4752 24.8077 24.3009 24.8109 24.1181C24.8141 23.9354 24.7463 23.7585 24.6217 23.6248ZM2.25698 10.9565C2.25698 9.23587 2.76719 7.55391 3.7231 6.12329C4.67902 4.69267 6.03769 3.57763 7.62732 2.91919C9.21694 2.26074 10.9661 2.08846 12.6537 2.42413C14.3412 2.75981 15.8913 3.58835 17.1079 4.805C18.3246 6.02164 19.1531 7.57175 19.4888 9.25928C19.8245 10.9468 19.6522 12.696 18.9937 14.2856C18.3353 15.8752 17.2203 17.2339 15.7896 18.1898C14.359 19.1457 12.6771 19.656 10.9565 19.656C8.65008 19.6532 6.43896 18.7357 4.80809 17.1048C3.17723 15.474 2.25978 13.2629 2.25698 10.9565Z" fill="#181818"/>
</svg>
