<svg width="20" height="20" viewBox="0 0 20 20" fill="none" xmlns="http://www.w3.org/2000/svg">
<path d="M7.45183 8.18627V1.12745C7.45188 1.03332 7.42933 0.940549 7.38609 0.856936C7.34285 0.773322 7.28018 0.701307 7.20333 0.646939C7.12648 0.592572 7.03771 0.55744 6.94447 0.544496C6.85123 0.531551 6.75625 0.541172 6.6675 0.572549C4.42172 1.36636 2.53304 2.9357 1.3414 4.9981C0.149764 7.0605 -0.266564 9.48051 0.16735 11.8225C0.184407 11.9152 0.223454 12.0023 0.28121 12.0767C0.338966 12.1511 0.413741 12.2106 0.499247 12.2501C0.584753 12.2895 0.67849 12.3079 0.772576 12.3036C0.866662 12.2994 0.958346 12.2726 1.03992 12.2255L7.1577 8.69608C7.24718 8.64442 7.32148 8.5701 7.37311 8.48061C7.42474 8.39111 7.45189 8.2896 7.45183 8.18627ZM6.27533 7.84314L1.21051 10.7647C1.18829 10.5105 1.17718 10.2556 1.17718 10C1.17844 8.32007 1.65874 6.67534 2.56173 5.25872C3.46472 3.8421 4.75295 2.71234 6.27533 2.00196V7.84314ZM10.0009 0C9.84489 0 9.69527 0.0619745 9.58495 0.17229C9.47463 0.282606 9.41265 0.432226 9.41265 0.588235V9.70588L1.58895 14.2608C1.52212 14.2998 1.46364 14.3516 1.41686 14.4132C1.37008 14.4749 1.33592 14.5451 1.31634 14.62C1.29675 14.6948 1.29214 14.7728 1.30275 14.8495C1.31335 14.9261 1.33898 14.9999 1.37816 15.0667C2.26589 16.5772 3.5349 17.828 5.05812 18.6937C6.58134 19.5595 8.3053 20.0099 10.0574 19.9998C11.8094 19.9897 13.5281 19.5195 15.0412 18.6363C16.5544 17.753 17.8089 16.4877 18.6792 14.967C19.5494 13.4464 20.0049 11.7238 20 9.97177C19.995 8.21973 19.5298 6.49974 18.651 4.98404C17.7721 3.46834 16.5105 2.21013 14.9924 1.33542C13.4743 0.46071 11.753 0.000197755 10.0009 0ZM10.0009 18.8235C8.56415 18.8197 7.14984 18.467 5.87957 17.7956C4.60931 17.1243 3.52112 16.1545 2.70858 14.9696L10.295 10.55C10.3844 10.4984 10.4586 10.4243 10.5102 10.335C10.5618 10.2456 10.589 10.1443 10.5892 10.0412V1.19608C12.8734 1.34861 15.0089 2.38292 16.5447 4.08057C18.0805 5.77822 18.8964 8.00631 18.82 10.2943C18.7437 12.5823 17.7811 14.751 16.1355 16.3425C14.4899 17.934 12.2902 18.8236 10.0009 18.8235Z" fill="#ABB7C2"/>
</svg>
